<?xml version="1.0" encoding="UTF-8"?>
<svg width="28px" height="28px" viewBox="0 0 28 28" version="1.1" xmlns="http://www.w3.org/2000/svg" xmlns:xlink="http://www.w3.org/1999/xlink">
    <!-- Generator: Sketch 50 (54983) - http://www.bohemiancoding.com/sketch -->
    <title>Group 8</title>
    <desc>Created with Sketch.</desc>
    <defs></defs>
    <g id="Page-1" stroke="none" stroke-width="1" fill="none" fill-rule="evenodd">
        <g id="12仪表盘组件" transform="translate(-99.000000, -814.000000)">
            <g id="Group-8" transform="translate(101.000000, 816.000000)">
                <rect id="Rectangle-31" stroke="#343F52" stroke-width="2" fill="#202B32" x="-1" y="-1" width="26" height="26" rx="6"></rect>
                <g id="Group-19-Copy" transform="translate(12.000000, 12.500000) scale(-1, -1) rotate(-90.000000) translate(-12.000000, -12.500000) translate(6.500000, 7.500000)">
                    <path d="M4.85147411,4.80264378 C5.16272807,5.06431588 5.7471033,5.06609369 6.06210534,4.8060883 L10.8203798,0.875006752 C11.0961085,0.64755759 11.049013,0.310772826 10.7160853,0.122435585 C10.3825058,-0.0655683145 9.88922533,-0.0334565373 9.61414854,0.193992625 L5.47707827,3.63284174 L1.3903627,0.197437141 C1.11789327,-0.0316787227 0.625264626,-0.0664572219 0.289077761,0.119768863 C-0.046294304,0.305550495 -0.0973008425,0.642335259 0.17516859,0.871562236 L4.85147411,4.80264378 Z" id="arrow" fill="#006EC1"></path>
                    <path d="M4.85147411,9.80264378 C5.16272807,10.0643159 5.7471033,10.0660937 6.06210534,9.8060883 L10.8203798,5.87500675 C11.0961085,5.64755759 11.049013,5.31077283 10.7160853,5.12243559 C10.3825058,4.93443169 9.88922533,4.96654346 9.61414854,5.19399263 L5.47707827,8.63284174 L1.3903627,5.19743714 C1.11789327,4.96832128 0.625264626,4.93354278 0.289077761,5.11976886 C-0.046294304,5.3055505 -0.0973008425,5.64233526 0.17516859,5.87156224 L4.85147411,9.80264378 Z" id="arrow-copy" fill="#00ADEC"></path>
                </g>
            </g>
        </g>
    </g>
</svg>